<?xml version="1.0" standalone="no"?>
<!DOCTYPE svg PUBLIC "-//W3C//DTD SVG 20010904//EN"
 "http://www.w3.org/TR/2001/REC-SVG-20010904/DTD/svg10.dtd">
<svg version="1.0" xmlns="http://www.w3.org/2000/svg"
 width="180.000000pt" height="180.000000pt" viewBox="0 0 180.000000 180.000000"
 preserveAspectRatio="xMidYMid meet">
<metadata>
Created by potrace 1.15, written by Peter Selinger 2001-2017
</metadata>
<g transform="translate(0.000000,180.000000) scale(0.100000,-0.100000)"
fill="#000000" stroke="none">
<path d="M1118 1523 c-9 -10 -21 -36 -27 -58 -15 -54 -15 -262 0 -271 21 -13
29 21 29 123 0 108 5 133 25 133 31 0 35 -92 5 -117 -30 -26 -26 -76 10 -115
25 -28 31 -31 40 -18 6 8 7 26 3 40 -4 14 -6 37 -5 53 7 150 5 175 -14 208
-24 40 -44 47 -66 22z"/>
<path d="M1516 1533 c-3 -3 -6 -65 -6 -137 0 -145 15 -198 57 -204 36 -5 58
48 58 143 0 90 -18 140 -50 140 -29 0 -33 -51 -6 -76 23 -22 29 -92 11 -119
-9 -13 -12 -12 -25 4 -11 15 -15 48 -15 132 0 103 -6 134 -24 117z"/>
<path d="M1255 1474 c-27 -27 -35 -60 -35 -137 0 -84 22 -140 57 -145 69 -10
84 240 17 285 -19 12 -24 12 -39 -3z"/>
<path d="M1388 1472 c-27 -29 -39 -94 -36 -186 2 -60 7 -91 16 -94 9 -3 12 16
13 70 2 97 10 132 33 136 31 6 41 -16 46 -110 3 -58 9 -93 17 -95 27 -9 29
168 2 245 -11 33 -49 64 -49 41 0 -8 -3 -9 -13 0 -11 8 -18 7 -29 -7z"/>
<path d="M1683 1475 c-43 -30 -56 -179 -22 -250 21 -44 58 -41 81 5 34 66 19
212 -24 247 -11 10 -19 9 -35 -2z"/>
<path d="M97 1263 c-4 -3 -7 -97 -7 -208 l0 -201 -33 -15 c-31 -14 -32 -15
-35 -88 -4 -98 -1 -106 37 -86 l30 15 3 -102 3 -103 60 0 60 0 3 127 3 128 36
15 c20 9 40 12 43 8 4 -5 36 -70 70 -145 l64 -138 83 0 c46 0 83 2 83 4 0 2
-36 81 -79 175 l-80 171 32 14 c18 7 49 19 70 26 l37 14 0 198 0 198 -238 0
c-131 0 -242 -3 -245 -7z m363 -205 l0 -53 -112 -45 c-62 -25 -116 -46 -120
-48 -5 -2 -8 42 -8 97 l0 101 120 0 120 0 0 -52z"/>
<path d="M620 1210 l0 -61 88 3 87 3 0 55 0 55 -87 3 -88 3 0 -61z"/>
<path d="M627 1074 c-4 -4 -7 -38 -7 -76 l0 -68 30 0 30 0 0 -230 0 -231 58 3
57 3 0 300 0 300 -80 3 c-45 1 -84 0 -88 -4z"/>
<path d="M847 1074 c-4 -4 -7 -73 -7 -153 l0 -146 148 -51 c137 -47 147 -52
150 -77 l3 -27 -90 0 -90 0 -3 27 c-3 23 -10 29 -53 40 -27 7 -54 13 -58 13
-4 0 -6 -51 -5 -112 l3 -113 205 0 205 0 3 151 3 152 -83 30 c-46 16 -113 39
-150 51 -59 20 -68 26 -68 47 0 24 2 24 89 24 l90 0 3 -27 c3 -23 10 -29 53
-40 28 -7 54 -13 58 -13 4 0 6 51 5 113 l-3 112 -201 3 c-110 1 -203 -1 -207
-4z"/>
<path d="M1300 1005 l0 -75 30 0 30 0 0 -230 0 -230 205 0 205 0 0 115 0 115
-27 -6 c-16 -4 -39 -10 -53 -14 -15 -4 -27 -16 -30 -31 -6 -23 -10 -24 -93
-27 l-87 -3 0 28 c0 28 4 30 145 76 l145 48 0 155 0 154 -235 0 -235 0 0 -75z"/>
</g>
</svg>
