<?xml version="1.0" standalone="no"?>
<!DOCTYPE svg PUBLIC "-//W3C//DTD SVG 20010904//EN"
 "http://www.w3.org/TR/2001/REC-SVG-20010904/DTD/svg10.dtd">
<svg version="1.0" xmlns="http://www.w3.org/2000/svg"
 width="351.000000pt" height="365.000000pt" viewBox="0 0 351.000000 365.000000"
 preserveAspectRatio="xMidYMid meet">
<metadata>
Created by potrace 1.15, written by Peter Selinger 2001-2017
</metadata>
<g transform="translate(0.000000,365.000000) scale(0.100000,-0.100000)"
fill="#000000" stroke="none">
<path d="M2177 3088 c-53 -72 -60 -113 -65 -385 -4 -256 0 -293 34 -293 27 0
34 50 34 256 0 153 4 213 14 238 19 46 34 53 59 27 44 -43 30 -241 -17 -241
-23 0 -36 -33 -36 -93 0 -50 4 -60 51 -121 28 -36 57 -66 65 -66 35 0 46 97
18 155 -14 31 -14 40 1 110 21 92 16 251 -9 332 -34 110 -101 145 -149 81z"/>
<path d="M2950 3101 c-16 -31 -13 -484 4 -549 20 -75 49 -125 80 -140 38 -19
71 5 102 73 83 180 31 525 -78 525 -23 0 -43 -67 -34 -114 4 -23 17 -42 36
-56 19 -13 34 -36 41 -63 21 -79 -6 -197 -46 -197 -35 0 -43 49 -47 281 -2
173 -6 230 -17 242 -18 22 -28 21 -41 -2z"/>
<path d="M2436 2978 c-44 -58 -61 -139 -60 -278 0 -102 5 -136 22 -184 23 -63
52 -101 83 -109 30 -8 75 37 100 101 19 49 23 77 23 192 1 102 -3 149 -17 192
-35 114 -101 151 -151 86z m90 -173 c7 -19 14 -62 14 -95 0 -122 -52 -174 -85
-85 -44 113 25 289 71 180z"/>
<path d="M2707 2992 c-27 -29 -55 -103 -66 -172 -14 -82 -14 -350 -1 -384 10
-28 34 -34 47 -13 4 6 10 91 13 187 4 147 8 180 23 204 15 23 24 27 55 24 57
-5 66 -32 72 -233 5 -170 9 -195 35 -195 29 0 38 68 32 244 -4 138 -9 184 -27
240 -31 97 -93 151 -108 94 l-5 -22 -8 22 c-10 27 -40 28 -62 4z"/>
<path d="M3271 2986 c-40 -42 -63 -122 -69 -238 -6 -122 8 -208 43 -278 60
-118 143 -69 180 106 17 82 19 155 4 243 -25 158 -96 233 -158 167z m75 -171
c41 -63 21 -235 -27 -235 -55 0 -69 219 -16 252 19 12 26 10 43 -17z"/>
<path d="M187 2563 c-4 -3 -7 -192 -7 -418 l0 -412 -65 -28 -65 -27 0 -178 0
-179 60 25 c33 13 62 24 65 24 2 0 6 -91 7 -202 l3 -203 117 -3 118 -3 2 258
3 258 57 27 c109 52 86 76 232 -252 l129 -290 164 0 c89 0 163 2 163 5 0 2
-67 155 -150 340 -82 184 -151 340 -152 346 -2 7 59 39 135 72 l137 59 0 394
0 394 -473 0 c-261 0 -477 -3 -480 -7z m711 -419 l3 -102 -227 -96 c-125 -53
-233 -96 -240 -96 -11 0 -14 37 -14 193 0 107 3 197 7 201 4 3 110 5 237 4
l231 -3 3 -101z"/>
<path d="M1212 2453 l3 -118 168 -3 167 -2 0 120 0 120 -170 0 -171 0 3 -117z"/>
<path d="M1210 2030 l0 -150 55 0 55 0 2 -457 3 -458 113 -3 112 -3 0 611 0
610 -170 0 -170 0 0 -150z"/>
<path d="M1640 1876 l0 -305 53 -19 c28 -11 159 -57 289 -103 l238 -84 0 -52
0 -53 -174 0 -175 0 -3 53 -3 52 -84 22 c-47 12 -97 25 -113 28 l-28 7 0 -231
0 -231 405 0 405 0 -2 312 -3 313 -285 101 -285 102 -3 46 -3 46 175 0 175 0
3 -52 3 -52 90 -22 c50 -13 100 -26 113 -29 l22 -5 0 230 0 230 -405 0 -405 0
0 -304z"/>
<path d="M2532 2033 l3 -148 58 -3 57 -3 0 -459 0 -460 405 0 405 0 0 231 0
231 -28 -7 c-16 -3 -66 -16 -113 -28 l-84 -22 -3 -52 -3 -53 -175 0 -174 0 0
53 0 52 208 74 c114 40 244 87 290 103 l82 30 0 304 0 304 -465 0 -466 0 3
-147z m696 -205 l-3 -51 -172 -58 -173 -57 0 109 0 109 176 0 175 0 -3 -52z"/>
</g>
</svg>
